<?xml version="1.0" standalone="no"?><!DOCTYPE svg PUBLIC "-//W3C//DTD SVG 1.1//EN" "http://www.w3.org/Graphics/SVG/1.1/DTD/svg11.dtd"><svg t="1503476842198" class="icon" style="" viewBox="0 0 1024 1024" version="1.1" xmlns="http://www.w3.org/2000/svg" p-id="8872" xmlns:xlink="http://www.w3.org/1999/xlink" width="200" height="200"><defs><style type="text/css"></style></defs><path d="M658.432 643.072c-32.768-32.768-71.168-58.88-113.664-76.8-5.12-2.048-10.24-4.096-15.872-6.144 18.432-10.752 35.328-24.064 50.688-39.424 46.592-46.592 72.192-108.544 72.192-174.592 0-66.048-25.6-128-72.192-174.592-46.592-46.592-108.544-72.192-174.592-72.192-66.048 0-128 25.6-174.592 72.192-46.592 46.592-72.192 108.544-72.192 174.592 0 66.048 25.6 128 72.192 174.592 15.36 15.36 32.256 28.672 50.688 39.424-5.12 2.048-10.24 4.096-15.872 6.144-42.496 17.92-80.896 44.032-113.664 76.8-32.768 32.768-58.88 71.168-76.8 113.664-18.944 44.032-28.16 91.136-28.16 139.264 0 15.36 12.288 27.648 27.648 27.648s27.648-12.288 27.648-27.648c0-79.36 30.72-154.112 86.016-211.456 55.296-56.832 129.024-89.6 207.872-92.16h19.968c78.848 2.56 152.576 35.328 207.872 92.16s86.016 132.096 86.016 211.456c0 15.36 12.288 27.648 27.648 27.648s27.648-12.288 27.648-27.648c0-48.128-9.728-95.232-28.16-139.264-19.456-42.496-45.056-80.896-78.336-113.664z m-243.2-104.96h-18.944c-102.4-5.12-182.784-89.088-182.784-192 0-105.984 86.016-192 192-192s192 86.016 192 192c0 102.912-80.384 187.392-182.272 192z" fill="#333333" p-id="8873"></path><path d="M948.224 757.248c-17.92-42.496-44.032-80.896-76.8-113.664-32.768-32.768-71.168-58.88-113.664-76.8-5.12-2.048-9.728-4.096-14.848-6.144 18.432-10.752 35.84-24.064 51.2-39.424 46.592-46.592 72.192-108.544 72.192-174.592 0-66.048-25.6-128-72.192-174.592-46.592-46.592-108.544-72.192-174.592-72.192-15.36 0-27.648 12.288-27.648 27.648s12.288 27.648 27.648 27.648c105.984 0 192 86.016 192 192 0 102.912-80.384 187.392-182.784 192h-10.24c-15.36 0-27.648 12.288-27.648 27.648 0 12.288 8.192 23.04 19.456 26.112 3.072 1.024 5.632 1.536 8.704 1.536h9.216c78.848 2.56 152.576 35.328 207.36 92.16 55.296 55.808 86.016 131.072 86.016 209.92 0 15.36 12.288 27.648 27.648 27.648s27.648-12.288 27.648-27.648c-0.512-48.128-10.24-95.232-28.672-139.264z" fill="#333333" p-id="8874"></path></svg>