<?xml version="1.0" standalone="no"?><!DOCTYPE svg PUBLIC "-//W3C//DTD SVG 1.1//EN" "http://www.w3.org/Graphics/SVG/1.1/DTD/svg11.dtd"><svg t="1503476694236" class="icon" style="" viewBox="0 0 1024 1024" version="1.1" xmlns="http://www.w3.org/2000/svg" p-id="5799" xmlns:xlink="http://www.w3.org/1999/xlink" width="200" height="200"><defs><style type="text/css"></style></defs><path d="M512.097259 1023.781934c-282.257703 0-511.890967-229.633264-511.890967-511.890967s229.633264-511.890967 511.890967-511.890967c100.391033 0 197.576604 29.056979 281.083425 84.013593 11.267744 7.394777 14.377993 22.519107 6.982193 33.755114-7.426514 11.236007-22.534464 14.329876-33.770471 6.966836-75.53975-49.703589-163.457024-75.984071-254.295147-75.984071-255.374213 0-463.139495 207.765282-463.139495 463.139495S256.723046 975.030463 512.097259 975.030463s463.139495-207.765282 463.139495-463.139495c0-54.258395-9.300035-107.405987-27.645184-157.998218-4.6019-12.664183 1.935972-26.644949 14.600154-31.231492 12.727657-4.554806 26.661329 1.952352 31.231492 14.600154 20.28112 55.940469 30.56501 114.690195 30.56501 174.629556C1023.988227 794.147647 794.354962 1023.781934 512.097259 1023.781934z" p-id="5800"></path><path d="M673.206751 575.956169c-9.36351-9.029757-27.867344-6.760032-33.960894 1.428176-4.665374 4.523069-7.077405 10.982109-6.601346 17.678666 0.476059 6.791769 3.903681 13.123861 8.823976 16.679455 53.162948 41.959703 83.664483 105.343066 83.664483 173.931337 0 13.806723 10.220415 23.820334 24.280012 23.820334 14.092358 0 24.312773-10.013611 24.312773-23.820334C773.724733 703.85008 736.842988 627.199527 673.206751 575.956169z" p-id="5801"></path><path d="M695.10647 392.947982c0-98.518536-82.744104-178.660185-184.469124-178.660185s-184.469124 80.14165-184.469124 178.660185c0 60.146165 31.453652 116.228939 81.760249 148.428929-96.39214 37.277948-157.458685 130.797356-157.458685 244.296893 0 13.806723 10.220415 23.820334 24.312773 23.820334 14.060621 0 24.281036-10.013611 24.281036-23.820334 0-124.037324 86.552572-214.065636 205.765836-214.065636l5.807915 0C612.362367 571.608167 695.10647 491.466518 695.10647 392.947982zM646.481947 392.947982c0 72.239077-60.939596 131.019517-135.843577 131.019517s-135.844601-58.781464-135.844601-131.019517S435.733365 261.927441 510.637346 261.927441 646.481947 320.708905 646.481947 392.947982z" p-id="5802"></path></svg>