<?xml version="1.0" standalone="no"?><!DOCTYPE svg PUBLIC "-//W3C//DTD SVG 1.1//EN" "http://www.w3.org/Graphics/SVG/1.1/DTD/svg11.dtd"><svg t="1503476241831" class="icon" style="" viewBox="0 0 1024 1024" version="1.1" xmlns="http://www.w3.org/2000/svg" p-id="1865" xmlns:xlink="http://www.w3.org/1999/xlink" width="200" height="200"><defs><style type="text/css"></style></defs><path d="M571.733 322.56H196.267a15.296 15.296 0 0 1-15.36-15.36v-5.12c0-8.533 6.826-15.36 15.36-15.36h375.466c8.534 0 15.36 6.827 15.36 15.36v5.12c0 8.533-6.826 15.36-15.36 15.36zM628.053 303.787a18.773 18.773 0 1 0 37.547 0 18.773 18.773 0 1 0-37.547 0z m46.08-134.827h-486.4c-63.146 0-116.053 51.2-116.053 116.053v592.214c0 63.146 51.2 116.053 116.053 116.053h486.4c63.147 0 116.054-51.2 116.054-116.053V285.013c0-64.853-52.907-116.053-116.054-116.053z m-486.4 58.027h486.4c32.427 0 58.027 25.6 58.027 58.026v75.094H131.413v-75.094c0-32.426 25.6-58.026 56.32-58.026z m486.4 708.266h-486.4c-32.426 0-58.026-25.6-58.026-58.026V409.6h600.746v467.627c0 32.426-25.6 58.026-56.32 58.026zM834.56 30.72h-486.4c-63.147 0-116.053 51.2-116.053 116.053v22.187h58.026v-22.187c0-32.426 25.6-58.026 58.027-58.026h486.4c32.427 0 58.027 25.6 58.027 58.026v592.214c0 32.426-25.6 58.026-58.027 58.026h-46.08v58.027h46.08c63.147 0 116.053-51.2 116.053-116.053V146.773c0-64.853-51.2-116.053-116.053-116.053z" p-id="1866" fill="#1296db"></path></svg>